#N canvas 65 22 1280 686 10;
#X obj 149 76 bng 15 250 50 0 empty empty empty 17 7 0 10 -262144 -1
-1;
#X obj 519 161 mtof;
#X text 426 156 midi to freq;
#X msg 149 97 0;
#X msg 198 95 1;
#X obj 198 76 bng 15 250 50 0 empty empty empty 17 7 0 10 -262144 -1
-1;
#X text 146 60 off;
#X text 198 59 on;
#X obj 149 156 metro 250;
#X floatatom 317 86 5 0 0 0 Speed - -;
#X obj 300 -3 loadbang;
#X obj 534 651 dac~;
#X obj 364 505 vline~;
#X obj 283 548 *~;
#X msg 364 459 1 \$2 \, \$4 \$3 \$2;
#X msg 515 460 0 \$2;
#X obj 364 411 pack f f f f;
#X obj 515 432 pack f f;
#X obj 515 405 sel 0;
#X floatatom 387 369 5 0 0 0 - - -;
#X floatatom 427 369 5 0 0 0 - - -;
#X floatatom 467 369 5 0 0 0 - - -;
#X floatatom 560 369 5 0 0 0 - - -;
#X obj 387 213 vsl 15 64 0 1000 0 0 empty empty empty 0 -9 0 10 -262144
-1 -1 0 1;
#X obj 426 213 vsl 15 64 0 500 0 0 empty empty empty 0 -9 0 10 -262144
-1 -1 0 1;
#X obj 467 214 vsl 15 64 0 1 0 0 empty empty empty 0 -9 0 10 -262144
-1 -1 0 1;
#X obj 560 214 vsl 15 64 0 1000 0 0 empty empty empty 0 -9 0 10 -262144
-1 -1 0 1;
#X obj 283 346 mtof;
#X obj 283 374 sig~;
#X obj 134 406 bng 15 250 50 0 empty empty empty 17 7 0 10 -262144
-1 -1;
#X floatatom 282 245 5 0 0 0 - - -;
#X floatatom 330 375 5 0 0 0 - - -;
#X obj 351 307 bng 15 250 50 0 empty empty empty 17 7 0 10 -262144
-1 -1;
#X obj 636 270 loadbang;
#X msg 604 322 15;
#X msg 640 321 80;
#X msg 684 322 126;
#X obj 135 504 s metro;
#X obj 370 7 r tempo;
#X msg 167 407 this is the shit;
#X obj 845 496 vline~;
#X obj 764 539 *~;
#X msg 845 450 1 \$2 \, \$4 \$3 \$2;
#X msg 996 451 0 \$2;
#X obj 845 402 pack f f f f;
#X obj 996 423 pack f f;
#X obj 996 396 sel 0;
#X floatatom 868 360 5 0 0 0 - - -;
#X floatatom 908 360 5 0 0 0 - - -;
#X floatatom 948 360 5 0 0 0 - - -;
#X floatatom 1041 360 5 0 0 0 - - -;
#X obj 868 205 vsl 15 64 0 500 0 0 empty empty empty 0 -9 0 10 -262144
-1 -1 0 1;
#X obj 907 204 vsl 15 64 0 500 0 0 empty empty empty 0 -9 0 10 -262144
-1 -1 0 1;
#X obj 948 205 vsl 15 64 0 1 0 0 empty empty empty 0 -9 0 10 -262144
-1 -1 0 1;
#X obj 1041 205 vsl 15 64 0 1000 0 0 empty empty empty 0 -9 0 10 -262144
-1 -1 0 1;
#X obj 764 337 mtof;
#X obj 764 365 sig~;
#X floatatom 763 236 5 0 0 0 - - -;
#X floatatom 811 366 5 0 0 0 - - -;
#X obj 832 298 bng 15 250 50 0 empty empty empty 17 7 0 10 -262144
-1 -1;
#X obj 1117 261 loadbang;
#X obj 284 395 osc~ 440;
#X msg 1085 313 10;
#X msg 1121 312 40;
#X msg 1165 313 70;
#X obj 284 573 *~ 0.5;
#X obj 767 572 *~ 0.5;
#X obj 765 386 phasor~ 440;
#X obj 486 95 unpack i i;
#X obj 485 47 r inst1_notevalue;
#X connect 0 0 3 0;
#X connect 3 0 8 0;
#X connect 4 0 8 0;
#X connect 5 0 4 0;
#X connect 8 0 29 0;
#X connect 8 0 39 0;
#X connect 9 0 8 1;
#X connect 10 0 5 0;
#X connect 12 0 13 1;
#X connect 13 0 65 0;
#X connect 14 0 12 0;
#X connect 15 0 12 0;
#X connect 16 0 14 0;
#X connect 17 0 15 0;
#X connect 18 0 17 0;
#X connect 19 0 16 1;
#X connect 20 0 16 2;
#X connect 21 0 16 3;
#X connect 22 0 17 1;
#X connect 23 0 19 0;
#X connect 24 0 20 0;
#X connect 25 0 21 0;
#X connect 26 0 22 0;
#X connect 27 0 28 0;
#X connect 27 0 31 0;
#X connect 28 0 61 0;
#X connect 29 0 37 0;
#X connect 30 0 27 0;
#X connect 30 0 32 0;
#X connect 32 0 16 0;
#X connect 33 0 36 0;
#X connect 33 0 35 0;
#X connect 33 0 34 0;
#X connect 34 0 19 0;
#X connect 35 0 20 0;
#X connect 36 0 22 0;
#X connect 38 0 9 0;
#X connect 39 0 37 0;
#X connect 40 0 41 1;
#X connect 41 0 66 0;
#X connect 42 0 40 0;
#X connect 43 0 40 0;
#X connect 44 0 42 0;
#X connect 45 0 43 0;
#X connect 46 0 45 0;
#X connect 47 0 44 1;
#X connect 48 0 44 2;
#X connect 49 0 44 3;
#X connect 50 0 45 1;
#X connect 51 0 47 0;
#X connect 52 0 48 0;
#X connect 53 0 49 0;
#X connect 54 0 50 0;
#X connect 55 0 56 0;
#X connect 55 0 58 0;
#X connect 56 0 67 0;
#X connect 57 0 55 0;
#X connect 57 0 59 0;
#X connect 59 0 44 0;
#X connect 60 0 64 0;
#X connect 60 0 63 0;
#X connect 60 0 62 0;
#X connect 61 0 13 0;
#X connect 62 0 47 0;
#X connect 63 0 48 0;
#X connect 64 0 50 0;
#X connect 65 0 11 0;
#X connect 65 0 11 1;
#X connect 66 0 11 1;
#X connect 66 0 11 0;
#X connect 67 0 41 0;
#X connect 68 0 30 0;
#X connect 68 1 23 0;
#X connect 69 0 68 0;
#X coords 0 343000 120 342500 85 60 0;
